<svg xmlns="http://www.w3.org/2000/svg" version="1.1" xmlns:xlink="http://www.w3.org/1999/xlink" xmlns:svgjs="http://svgjs.dev/svgjs" width="1457" height="4000" preserveAspectRatio="none" viewBox="0 0 1457 4000"><g mask="url(&quot;#SvgjsMask1174&quot;)" fill="none"><rect width="1457" height="4000" x="0" y="0" fill="rgba(150, 199, 250, 1)"></rect><path d="M0,778.909C200.272,795.882,386.678,960.567,578.258,899.787C777.394,836.609,933.886,655.538,1006.415,459.614C1077.238,268.298,1036.16,51.875,962.581,-138.398C898.063,-305.238,732.91,-398.53,620.697,-537.837C502.939,-684.027,466.948,-923.977,286.928,-977.187C106.946,-1030.385,-53.612,-848.411,-231.921,-789.851C-402.786,-733.736,-605.382,-760.741,-738.924,-640.282C-877.239,-515.518,-911.967,-318.513,-955.292,-137.35C-1002.492,60.018,-1086.618,273.151,-1001.418,457.332C-916.27,641.401,-711.619,744.828,-518.522,806.836C-350.313,860.852,-176.038,763.99,0,778.909" fill="#4a9ef6"></path><path d="M1457 5131.415C1715.022 5158.91 1998.279 5322.179 2217.871 5183.938 2437.227 5045.845 2428.573 4725.25 2498.6059999999998 4475.686 2558.066 4263.799 2606.694 4056.042 2596.068 3836.227 2584.533 3597.608 2562.0699999999997 3354.939 2434.661 3152.852 2295.64 2932.3469999999998 2100.344 2734.031 1851.742 2655.633 1601.279 2576.648 1323.387 2620.635 1083.105 2726.6310000000003 858.768 2825.593 690.026 3015.381 562.076 3224.544 447.65 3411.598 443.525 3633.285 397.35300000000007 3847.646 347.18499999999995 4080.558 203.59300000000007 4311.945 279.1869999999999 4537.889 356.201 4768.0779999999995 576.897 4922.9439999999995 793.661 5032.1759999999995 997.4449999999999 5134.867 1230.089 5107.236 1457 5131.415" fill="#e2f0fe"></path></g><defs><mask id="SvgjsMask1174"><rect width="1457" height="4000" fill="#ffffff"></rect></mask></defs></svg>